<?xml version="1.0" standalone="no"?>
<!DOCTYPE svg PUBLIC "-//W3C//DTD SVG 20010904//EN"
 "http://www.w3.org/TR/2001/REC-SVG-20010904/DTD/svg10.dtd">
<svg version="1.0" xmlns="http://www.w3.org/2000/svg"
 width="225.000000pt" height="225.000000pt" viewBox="0 0 225.000000 225.000000"
 preserveAspectRatio="xMidYMid meet">
<metadata>
Created by potrace 1.16, written by Peter Selinger 2001-2019
</metadata>
<g transform="translate(0.000000,225.000000) scale(0.100000,-0.100000)"
fill="#000000" stroke="none">
<path d="M345 1807 c-113 -43 -179 -138 -192 -270 -5 -58 6 -107 41 -189 6
-13 -1 -21 -31 -37 -48 -24 -116 -97 -139 -148 -13 -29 -18 -76 -22 -191 -4
-136 -2 -155 13 -173 21 -22 77 -26 93 -6 5 6 12 77 14 157 3 129 6 149 27
186 43 76 120 103 222 77 58 -15 73 -15 115 -4 65 18 140 15 178 -7 38 -22 73
-73 82 -118 6 -31 2 -39 -41 -85 -25 -27 -58 -75 -73 -107 -25 -54 -27 -66
-30 -240 -4 -164 -2 -185 14 -203 20 -22 76 -26 92 -7 6 8 12 89 14 188 4 195
12 223 80 286 72 69 138 84 226 55 34 -12 77 -21 97 -21 20 0 63 9 97 21 90
30 166 10 234 -63 63 -66 68 -86 72 -278 2 -99 8 -180 14 -188 16 -19 72 -15
92 7 16 18 18 39 14 203 -3 174 -5 186 -30 240 -15 32 -48 80 -73 107 -43 46
-47 54 -41 85 9 45 44 96 82 118 38 22 113 25 178 7 42 -11 57 -11 115 4 102
26 179 -1 222 -77 21 -37 24 -57 27 -186 2 -80 9 -151 14 -157 16 -20 72 -16
93 6 15 18 17 37 13 173 -4 115 -9 162 -22 191 -23 51 -91 124 -139 148 -30
16 -37 24 -31 37 4 9 16 42 27 72 48 136 -22 314 -149 375 -23 12 -68 21 -112
23 -63 4 -79 1 -126 -22 -60 -29 -103 -73 -138 -139 -20 -36 -23 -57 -23 -142
0 -85 3 -106 23 -142 12 -24 18 -43 13 -43 -5 0 -31 -15 -59 -34 l-50 -33 -4
81 c-9 151 -79 266 -196 323 -48 23 -70 28 -137 28 -67 0 -89 -5 -137 -28
-117 -57 -187 -172 -196 -323 l-4 -81 -50 33 c-28 19 -54 34 -59 34 -5 0 1 19
13 43 20 36 23 57 23 142 0 85 -3 106 -23 142 -57 109 -143 164 -251 162 -37
0 -80 -6 -96 -12z m148 -121 c67 -27 113 -112 105 -190 -11 -96 -76 -167 -155
-168 -133 -2 -212 167 -136 290 46 73 114 98 186 68z m1401 -11 c45 -30 77
-96 77 -159 0 -146 -131 -235 -241 -163 -114 76 -99 277 25 333 38 18 103 12
139 -11z m-686 -122 c48 -23 97 -85 117 -151 35 -109 -11 -246 -101 -298 -94
-55 -214 -24 -270 71 -66 113 -51 248 36 336 68 68 134 80 218 42z"/>
</g>
</svg>
