<?xml version="1.0" standalone="no"?>
<!DOCTYPE svg PUBLIC "-//W3C//DTD SVG 20010904//EN"
 "http://www.w3.org/TR/2001/REC-SVG-20010904/DTD/svg10.dtd">
<svg version="1.0" xmlns="http://www.w3.org/2000/svg"
 width="216.000000pt" height="280.000000pt" viewBox="0 0 216.000000 280.000000"
 preserveAspectRatio="xMidYMid meet">
<metadata>
Created by potrace 1.16, written by Peter Selinger 2001-2019
</metadata>
<g transform="translate(0.000000,280.000000) scale(0.100000,-0.100000)"
fill="#000000" stroke="none">
<path d="M0 1410 l0 -1390 1080 0 1080 0 0 1390 0 1390 -1080 0 -1080 0 0
-1390z m1252 1341 c13 -5 36 -13 53 -16 26 -6 27 -8 12 -16 -25 -14 -13 -26
34 -34 41 -7 151 -61 157 -77 2 -4 8 -6 13 -3 5 4 6 -1 3 -9 -4 -10 3 -20 20
-28 15 -6 25 -17 22 -24 -3 -7 2 -10 15 -7 10 3 19 0 19 -6 0 -6 11 -16 25
-21 14 -5 25 -16 25 -25 0 -9 11 -20 24 -25 14 -5 30 -19 36 -31 8 -15 9 -19
1 -15 -6 4 -11 2 -11 -3 0 -6 6 -11 14 -11 21 0 30 -19 16 -35 -7 -8 -7 -15
-1 -19 5 -3 11 0 14 6 7 22 36 -10 30 -32 -3 -12 1 -22 11 -26 9 -3 13 -10 10
-16 -3 -5 2 -18 11 -28 21 -24 27 -67 13 -104 -10 -24 -9 -30 5 -38 9 -5 17
-18 17 -28 0 -10 5 -22 10 -25 6 -3 10 -20 10 -36 0 -17 5 -39 11 -50 7 -15 7
-24 -1 -34 -9 -10 -7 -15 9 -20 10 -3 25 -13 33 -22 8 -10 8 -14 1 -10 -21 13
-23 -10 -2 -29 29 -26 52 -79 44 -103 -4 -14 -1 -23 8 -27 9 -3 18 -26 22 -52
4 -26 11 -54 16 -63 19 -35 47 -235 39 -278 -4 -24 -5 -51 -3 -61 3 -11 -7
-76 -23 -145 -22 -103 -25 -130 -15 -151 10 -23 9 -25 -9 -19 -25 8 -25 -1 0
-42 16 -27 17 -33 5 -33 -8 0 -15 7 -15 15 0 8 -4 15 -10 15 -5 0 -10 -7 -10
-15 0 -10 -10 -15 -26 -15 -21 0 -24 -3 -16 -13 11 -13 -4 -76 -21 -93 -11
-11 -8 -62 3 -69 6 -3 10 -15 10 -27 0 -17 -2 -19 -16 -7 -13 11 -14 9 -9 -14
6 -22 4 -26 -9 -21 -19 7 -20 0 -6 -27 7 -11 7 -19 1 -19 -5 0 -12 6 -15 13
-5 9 -7 9 -12 0 -3 -7 -15 -13 -26 -13 -15 0 -19 -5 -15 -20 3 -10 -1 -24 -9
-31 -8 -6 -12 -15 -9 -19 3 -4 -3 -7 -12 -6 -9 0 -18 -5 -21 -13 -3 -10 2 -13
20 -9 21 4 24 1 20 -14 -3 -13 -8 -16 -15 -9 -5 5 -16 7 -23 4 -8 -3 -18 5
-24 21 -5 15 -17 26 -28 26 -10 0 -27 10 -38 21 -10 12 -29 25 -42 30 -35 14
-26 57 17 81 18 10 40 25 48 33 12 12 10 15 -12 21 -37 9 -45 33 -38 110 9 98
24 128 73 148 46 18 70 20 70 6 0 -5 -13 -10 -29 -10 -17 0 -32 -4 -35 -8 -4
-7 53 -34 79 -37 6 -1 18 -5 28 -9 25 -12 29 -4 17 28 -19 52 -13 73 25 86 46
15 78 0 66 -33 -23 -62 -29 -87 -20 -93 15 -9 27 4 43 53 19 56 21 95 4 91
-22 -4 -58 26 -58 47 0 12 7 30 15 41 26 35 16 36 -40 5 -79 -45 -115 -42
-165 12 -22 23 -40 48 -40 55 0 17 -19 15 -26 -3 -9 -24 -33 -18 -40 10 -14
55 28 147 79 174 12 7 35 32 50 56 35 55 48 66 105 85 51 17 86 60 66 80 -9 9
-20 8 -42 -4 -43 -22 -69 -20 -75 5 -11 41 -39 17 -61 -52 -25 -78 -62 -130
-118 -165 -52 -33 -72 -20 -65 43 2 24 2 45 -2 47 -4 3 -8 42 -9 87 -1 46 -4
90 -7 100 -3 9 -1 27 4 40 5 13 10 18 10 11 1 -14 21 -7 21 7 0 4 -15 25 -34
46 -39 44 -56 97 -44 140 4 18 3 43 -3 63 -13 41 2 84 38 107 22 15 36 15 106
6 52 -7 88 -18 101 -30 34 -29 46 -34 46 -16 0 9 -13 28 -30 43 -28 26 -29 29
-15 56 20 39 20 112 -1 120 -24 9 -29 8 -54 -14 -13 -11 -31 -20 -40 -20 -9 0
-25 -9 -35 -20 -14 -16 -26 -19 -49 -14 -46 9 -59 25 -46 58 6 17 24 33 47 43
49 20 47 17 28 47 -9 14 -18 45 -20 68 -4 57 -4 56 -20 34 -8 -11 -15 -34 -15
-52 0 -20 -9 -44 -24 -61 -24 -27 -25 -27 -44 -10 -16 14 -19 27 -15 53 5 29
3 34 -14 34 -12 0 -27 -10 -35 -22 -9 -14 -20 -19 -31 -15 -21 8 -22 59 -3
139 7 32 11 60 8 63 -3 3 -20 5 -38 5 -21 0 -38 7 -47 20 -14 19 -14 19 -37
-5 -29 -31 -31 -31 -70 2 l-32 26 7 -49 c4 -29 15 -56 26 -66 10 -9 19 -22 19
-28 0 -7 13 -24 28 -38 29 -28 82 -139 82 -172 0 -13 -14 -27 -39 -39 -21 -11
-41 -27 -44 -36 -7 -17 -52 -21 -62 -5 -3 6 -13 10 -21 10 -11 0 -12 -4 -4
-19 5 -11 10 -29 10 -40 0 -11 8 -25 18 -30 15 -9 15 -10 -5 -11 -12 0 -24 -4
-27 -9 -11 -16 -59 -22 -88 -10 -22 9 -28 17 -26 38 3 24 -1 26 -42 31 -98 12
-119 57 -52 117 l37 33 -47 -6 c-52 -7 -52 -6 -48 50 2 28 33 90 41 82 10 -10
48 31 51 54 2 21 -2 26 -27 28 -16 2 -34 10 -40 19 -10 13 -13 13 -24 -1 -8
-9 -22 -16 -32 -16 -12 0 -23 -10 -29 -25 -11 -30 -31 -32 -55 -5 -38 42 -61
14 -27 -31 43 -57 56 -131 25 -143 -11 -5 -33 11 -75 53 -32 33 -58 65 -58 71
0 6 -5 8 -10 5 -5 -3 -10 -18 -10 -32 0 -15 -10 -37 -21 -49 -20 -21 -23 -22
-44 -8 -27 18 -36 8 -33 -33 2 -28 -18 -97 -35 -120 -7 -10 0 -13 27 -13 47 0
76 -15 76 -40 0 -26 -11 -31 -125 -60 l-100 -25 -3 -41 -3 -41 75 -21 c80 -24
109 -49 86 -77 -9 -11 -28 -13 -76 -8 -41 4 -64 2 -64 -4 0 -6 12 -14 27 -18
77 -19 69 -86 -10 -90 -77 -4 -87 -6 -86 -17 1 -16 57 -63 86 -72 16 -5 23 -2
28 14 3 11 11 20 16 20 16 0 69 -57 69 -74 0 -9 4 -16 10 -16 11 0 5 21 -23
77 -18 35 -19 44 -8 57 8 9 26 16 42 16 27 0 29 3 29 39 0 33 5 42 35 62 37
25 42 34 25 44 -22 14 -8 61 29 103 53 58 78 57 86 -5 13 -99 11 -122 -20
-167 -18 -27 -25 -50 -25 -86 0 -50 -13 -73 -49 -85 -19 -6 -19 -7 5 -42 29
-44 31 -69 3 -83 -17 -10 -18 -14 -8 -27 16 -18 36 -52 44 -73 3 -8 13 -28 21
-43 16 -33 19 -73 4 -82 -5 -3 -16 8 -25 25 -8 16 -29 37 -45 45 -17 9 -30 20
-30 25 0 6 -9 10 -20 10 -13 0 -26 13 -37 38 -14 29 -24 37 -46 38 -43 2 -42
-12 3 -64 23 -26 46 -57 51 -70 5 -12 20 -27 34 -34 14 -6 25 -17 25 -25 0
-20 -32 -1 -67 40 -40 48 -83 77 -122 82 -18 2 -44 11 -59 21 -18 12 -27 13
-30 6 -5 -16 -23 -15 -19 0 3 19 -39 22 -46 4 -4 -9 -1 -16 5 -16 7 0 7 -4 1
-12 -16 -21 -22 -58 -10 -58 7 0 19 -5 27 -10 12 -7 11 -13 -10 -35 -21 -22
-22 -28 -10 -35 8 -5 20 -10 26 -10 5 0 25 -16 44 -35 19 -19 40 -35 47 -35 7
0 13 -11 13 -25 0 -38 -38 -52 -81 -31 -43 21 -56 20 -63 -6 -7 -30 5 -40 54
-45 23 -2 51 -8 63 -12 11 -4 37 -4 57 0 19 5 52 9 73 9 34 0 40 -4 52 -33 12
-28 19 -88 16 -140 -1 -10 -17 -27 -36 -39 -56 -32 -43 -52 31 -49 86 3 94
-10 55 -87 -21 -42 -38 -63 -60 -72 -37 -15 -40 -30 -8 -30 16 0 28 -9 35 -25
6 -14 18 -25 27 -25 22 0 75 -78 75 -111 0 -30 18 -49 29 -30 9 14 31 -30 31
-61 0 -17 -4 -19 -25 -14 -29 7 -34 -8 -7 -23 12 -8 -4 -10 -63 -8 -70 2 -80
4 -79 20 1 10 -11 31 -27 47 -18 18 -29 23 -29 14 0 -22 -15 -17 -30 10 -7 14
-19 28 -28 31 -13 5 -13 3 0 -17 15 -23 29 -68 22 -68 -4 0 -44 59 -97 144
-20 34 -42 68 -47 76 -6 8 -18 30 -27 47 -9 18 -20 33 -25 33 -4 0 -8 8 -8 17
0 10 16 -6 37 -36 21 -29 39 -48 41 -42 6 18 20 13 33 -12 9 -18 9 -20 -2 -9
-34 32 -39 2 -5 -38 17 -21 26 -26 35 -17 6 6 11 7 11 1 0 -6 -5 -15 -11 -21
-9 -9 -8 -16 5 -28 9 -9 20 -14 25 -11 5 3 14 -1 21 -9 7 -8 16 -15 21 -15 16
0 9 23 -18 59 -16 20 -28 40 -28 44 0 4 -5 11 -10 15 -6 4 -16 19 -22 35 -9
19 -20 27 -38 27 -22 0 -25 4 -20 20 5 15 0 21 -20 26 -19 5 -23 9 -15 19 8 9
6 14 -7 20 -17 6 -17 7 0 16 26 15 21 36 -12 50 -24 11 -27 16 -19 27 8 9 8
16 2 20 -6 4 -13 15 -17 24 -3 10 -13 18 -22 18 -9 0 -15 9 -15 24 0 14 -5 28
-10 31 -6 4 -8 11 -5 16 4 5 1 9 -4 9 -6 0 -11 11 -11 25 0 16 -6 25 -15 25
-19 0 -19 9 0 34 8 11 15 32 15 47 0 15 5 29 10 31 6 2 8 26 4 65 -4 34 -11
60 -15 57 -5 -3 -9 -14 -9 -26 0 -17 -2 -18 -15 -8 -18 15 -16 55 3 55 6 0 11
5 10 10 -1 6 -8 9 -15 7 -16 -4 -18 83 -3 93 5 3 10 24 10 47 0 32 3 39 15 34
11 -4 14 0 11 17 -12 56 -16 107 -9 107 5 0 14 12 21 27 14 32 16 143 2 143
-6 0 -10 -27 -10 -60 0 -37 -4 -60 -11 -60 -6 0 -8 7 -5 16 3 9 6 40 6 70 0
50 2 55 27 65 27 10 27 11 9 24 -18 14 -18 15 7 26 15 7 24 15 22 20 -3 4 0
19 7 34 8 17 8 29 2 33 -12 9 -9 105 5 150 5 18 8 39 5 47 -7 16 23 75 37 75
7 0 9 -10 5 -26 -6 -24 -5 -25 9 -11 8 9 15 19 15 24 0 5 14 35 30 67 17 32
28 61 25 64 -3 3 -5 0 -5 -6 0 -7 -7 -12 -15 -12 -17 0 -20 16 -4 26 6 3 8 15
6 26 -3 12 2 23 14 31 10 6 19 15 19 20 0 4 15 24 34 43 l33 34 -5 -27 c-5
-26 1 -23 56 32 34 32 62 65 62 72 0 7 7 10 15 7 10 -4 13 -2 10 8 -3 7 2 22
11 33 15 20 15 20 11 -2 -4 -16 -1 -20 10 -16 8 3 13 14 10 24 -3 11 -1 22 4
25 5 3 9 0 9 -5 0 -6 4 -11 10 -11 5 0 9 10 7 21 -1 15 8 27 28 40 38 22 43
23 41 3 -2 -26 21 -27 27 -2 4 13 21 30 39 40 47 23 146 40 167 28 13 -7 13
-9 2 -10 -23 0 0 -18 29 -22 l25 -4 -28 -12 c-39 -17 -26 -30 25 -26 170 13
208 18 208 26 0 5 10 8 23 6 14 -2 22 2 22 12 0 11 -11 15 -40 15 -22 0 -44 5
-50 12 -5 7 -37 14 -70 16 -53 3 -50 3 22 5 45 1 92 -2 105 -7z m-349 -735
c149 -104 195 -104 339 -3 66 46 88 45 88 -7 0 -34 -1 -35 -30 -29 -22 4 -30
2 -28 -7 2 -7 -7 -14 -20 -15 -60 -5 -88 -75 -69 -172 9 -43 8 -55 -6 -75 -63
-86 -69 -99 -69 -163 0 -34 7 -88 17 -120 9 -32 14 -69 11 -81 -5 -19 -2 -24
11 -24 24 0 63 -62 63 -100 0 -17 6 -30 13 -31 6 -1 44 -2 83 -4 38 -1 85 -6
102 -10 24 -5 33 -3 38 9 3 9 11 16 18 16 27 0 87 -168 72 -205 -5 -15 -14
-11 -59 28 -28 24 -53 54 -55 65 -9 60 -146 79 -212 31 -28 -21 -31 -28 -26
-59 3 -19 6 -56 6 -82 0 -44 2 -48 23 -44 17 2 23 10 25 39 3 31 9 39 38 53
28 13 37 14 49 4 12 -10 19 -10 27 -2 18 18 50 14 78 -8 35 -27 16 -46 -32
-32 -53 16 -93 10 -96 -14 -2 -11 6 -28 18 -39 23 -20 27 -65 6 -65 -7 0 -25
9 -39 20 -32 26 -54 25 -62 -1 -4 -11 -17 -24 -31 -29 -26 -10 -57 -72 -47
-95 3 -9 0 -28 -7 -44 -6 -16 -9 -39 -5 -50 6 -20 62 -60 100 -72 18 -5 17 -7
-8 -14 -21 -6 -31 -3 -41 10 -8 11 -20 16 -30 12 -18 -7 -22 -42 -5 -52 6 -4
7 -19 4 -35 -8 -38 11 -48 39 -20 l23 21 5 -23 c6 -34 0 -47 -34 -64 -27 -14
-29 -17 -15 -31 13 -14 22 -12 82 11 67 28 95 30 102 10 5 -16 -65 -57 -101
-60 -16 -1 -32 -7 -36 -14 -6 -9 -40 -13 -121 -12 -121 2 -153 14 -147 56 3
22 17 24 76 11 28 -7 32 -5 32 13 0 16 -10 24 -37 31 -21 6 -49 11 -64 11 -57
0 -68 65 -19 121 26 28 33 31 40 19 5 -8 10 -18 10 -22 0 -10 29 -24 66 -32
30 -7 32 -5 44 39 15 54 8 66 -23 38 -22 -20 -47 -21 -47 -2 0 6 14 22 30 36
27 22 30 29 24 62 -17 92 -57 148 -84 116 -7 -8 -29 -15 -48 -15 -29 0 -34 -3
-24 -12 7 -7 27 -18 45 -24 29 -10 32 -15 32 -50 0 -37 -2 -40 -52 -64 -34
-16 -54 -33 -58 -47 -8 -32 -41 -30 -49 2 -4 14 -11 25 -16 25 -18 0 -50 40
-50 63 0 17 2 19 9 8 12 -19 121 -27 150 -12 30 16 26 31 -7 31 -23 0 -41 13
-80 57 -90 101 -100 123 -63 143 17 8 24 5 47 -25 33 -44 51 -44 59 -2 4 17
17 45 31 62 l24 30 6 -33 c4 -17 9 -32 13 -32 9 0 37 20 29 20 -4 0 0 19 9 41
15 40 15 43 -2 55 -10 8 -29 11 -42 8 -28 -7 -53 11 -53 38 0 11 -5 18 -12 15
-21 -7 -48 12 -48 33 0 18 7 20 59 20 35 0 62 5 68 13 8 10 17 38 39 115 2 6
13 12 25 12 18 0 20 4 15 25 -3 14 1 42 11 66 30 77 -8 232 -71 286 -30 27
-32 38 -10 82 14 29 15 39 3 84 -13 46 -19 55 -59 75 -25 13 -55 21 -66 19
-18 -3 -23 3 -33 46 -10 44 -8 67 5 67 2 0 32 -20 67 -44z m-93 -855 c0 -6 14
-30 30 -54 17 -25 30 -49 30 -55 0 -6 -26 -25 -57 -42 -32 -18 -68 -42 -80
-53 l-23 -20 0 54 c1 114 29 179 77 179 13 0 23 -4 23 -9z m743 -695 c18 -14
36 -24 40 -24 4 0 21 -5 37 -12 23 -9 33 -10 44 -1 11 9 12 7 9 -13 -3 -13 3
-36 13 -50 13 -20 14 -30 5 -39 -8 -8 -14 -8 -23 1 -7 7 -20 12 -30 12 -10 0
-18 7 -18 15 0 8 -7 15 -15 15 -8 0 -15 -4 -15 -10 0 -5 -7 -10 -16 -10 -14 0
-14 1 0 16 22 22 13 31 -38 38 -55 9 -70 24 -56 60 12 32 23 33 63 2z"/>
</g>
</svg>
