<?xml version="1.0" standalone="no"?>
<!DOCTYPE svg PUBLIC "-//W3C//DTD SVG 20010904//EN"
 "http://www.w3.org/TR/2001/REC-SVG-20010904/DTD/svg10.dtd">
<svg version="1.0" xmlns="http://www.w3.org/2000/svg"
 width="1058.000000pt" height="487.000000pt" viewBox="0 0 1058.000000 487.000000"
 preserveAspectRatio="xMidYMid meet">
<metadata>
Created by potrace 1.16, written by Peter Selinger 2001-2019
</metadata>
<g transform="translate(0.000000,487.000000) scale(0.100000,-0.100000)"
fill="#000000" stroke="none">
<path d="M1032 4128 l-2 -618 -34 0 c-48 0 -55 -18 -9 -22 l38 -3 3 -647 2
-648 -40 0 c-22 0 -40 -4 -40 -10 0 -5 18 -10 40 -10 l40 0 0 -650 0 -650 -40
0 c-22 0 -40 -4 -40 -10 0 -5 18 -10 40 -10 l40 0 0 -325 0 -325 55 0 55 0 0
-35 c0 -19 5 -35 10 -35 6 0 10 16 10 35 l0 35 2284 0 2285 0 4 -37 4 -38 1
38 2 37 2285 0 2285 0 0 -35 c0 -19 5 -35 10 -35 6 0 10 16 10 35 l0 35 55 0
c30 0 55 4 55 10 0 7 -1577 11 -4697 12 l-4698 3 -5 2260 c-3 1243 -6 1982 -8
1643z"/>
<path d="M7948 4343 c-10 -2 -18 -11 -18 -18 0 -11 8 -13 30 -9 16 4 41 3 55
0 28 -7 34 -36 8 -36 -45 0 -94 -22 -103 -46 -22 -56 30 -100 91 -77 18 7 31
7 37 1 19 -19 32 3 32 56 0 115 -40 153 -132 129z"/>
<path d="M8693 4335 c-46 -33 -52 -117 -10 -162 20 -23 66 -30 102 -17 23 9
45 57 45 99 0 71 -81 119 -137 80z"/>
<path d="M6620 4275 c0 -13 47 -15 365 -15 318 0 365 2 365 15 0 13 -47 15
-365 15 -318 0 -365 -2 -365 -15z"/>
<path d="M8390 3864 c0 -40 -2 -45 -17 -39 -45 19 -72 17 -97 -8 -37 -37 -37
-117 -1 -152 26 -27 73 -33 93 -13 10 10 15 10 21 -1 22 -35 31 4 31 130 0
108 -2 129 -15 129 -11 0 -15 -12 -15 -46z"/>
<path d="M7868 3829 c-31 -18 -19 -27 27 -21 42 4 75 -8 75 -28 0 -4 -21 -10
-47 -14 -76 -10 -103 -52 -67 -104 18 -27 69 -30 96 -5 17 15 18 15 18 0 0
-10 7 -17 15 -17 12 0 15 15 15 79 0 74 -2 81 -26 100 -28 22 -78 27 -106 10z"/>
<path d="M8494 3825 c-21 -16 -17 -18 39 -15 35 1 67 -13 67 -30 0 -4 -21 -10
-47 -14 -76 -10 -103 -52 -67 -104 17 -25 71 -30 93 -9 11 10 14 10 18 0 3 -7
11 -13 19 -13 11 0 14 18 14 79 0 74 -2 81 -26 100 -31 24 -82 27 -110 6z"/>
<path d="M8945 3815 c-20 -19 -25 -34 -25 -75 0 -65 30 -100 85 -100 55 0 85
35 85 100 0 41 -5 56 -25 75 -33 34 -87 34 -120 0z"/>
<path d="M9595 3817 c-20 -16 -28 -35 -32 -68 -10 -90 77 -142 143 -85 24 20
28 31 28 76 0 45 -4 56 -28 76 -34 30 -77 31 -111 1z"/>
<path d="M148 3600 c-29 -30 -30 -33 -27 -109 4 -85 19 -115 64 -123 65 -13
105 38 105 134 0 112 -75 164 -142 98z m98 -35 c35 -85 -1 -192 -59 -170 -25
10 -40 61 -35 119 5 63 20 86 55 86 18 0 28 -9 39 -35z"/>
<path d="M487 3609 c-67 -52 -54 -212 18 -239 62 -23 115 35 115 124 0 110
-67 168 -133 115z m77 -25 c26 -26 25 -147 -2 -177 -21 -24 -54 -18 -69 13
-18 36 -16 131 3 158 18 26 46 28 68 6z"/>
<path d="M680 3561 l0 -60 35 6 c47 8 85 -17 85 -57 0 -48 -61 -76 -111 -50
-16 9 -19 7 -19 -9 0 -15 8 -21 33 -23 47 -5 100 8 114 28 15 21 17 78 3 104
-12 22 -70 43 -94 34 -15 -6 -17 -1 -14 27 3 33 4 34 56 37 77 4 63 22 -18 22
l-70 0 0 -59z"/>
<path d="M4045 2988 c-46 -40 -55 -147 -18 -206 34 -55 114 -47 139 14 31 74
8 185 -41 204 -38 15 -51 13 -80 -12z m73 -17 c35 -22 36 -155 2 -186 -45 -41
-83 8 -78 101 5 82 33 113 76 85z"/>
<path d="M4377 2990 c-94 -74 -32 -284 71 -241 41 17 57 53 57 126 0 70 -16
108 -52 124 -34 15 -47 14 -76 -9z m77 -32 c10 -14 16 -44 16 -83 0 -66 -18
-105 -50 -105 -32 0 -50 39 -50 105 0 66 18 105 50 105 10 0 26 -10 34 -22z"/>
<path d="M4590 3001 c-14 -4 -26 -14 -28 -23 -3 -13 2 -14 38 -5 49 14 74 2
78 -37 3 -20 -10 -41 -57 -93 -34 -37 -61 -73 -61 -80 0 -9 22 -13 80 -13 64
0 80 3 80 15 0 12 -13 15 -56 15 l-57 0 47 50 c25 27 51 60 57 74 18 38 3 75
-36 92 -37 15 -47 16 -85 5z"/>
<path d="M4819 2995 c-36 -20 -43 -53 -19 -86 19 -27 19 -27 -1 -44 -26 -24
-25 -76 2 -101 14 -12 36 -19 64 -19 28 0 50 7 64 19 27 25 28 77 1 101 -17
15 -18 20 -5 29 7 6 17 23 20 37 13 55 -68 97 -126 64z"/>
<path d="M5100 2879 l-45 -5 40 -5 40 -4 3 -367 2 -368 -40 0 c-22 0 -40 -4
-40 -10 0 -5 18 -10 41 -10 l41 0 -4 -172 c-4 -162 -6 -177 -32 -237 -15 -35
-25 -65 -23 -67 2 -3 12 17 22 43 21 58 35 75 35 45 0 -12 5 -22 10 -22 6 0
10 18 10 40 l0 40 1163 -2 1162 -3 3 -37 c4 -51 22 -49 22 2 l0 40 1163 -2
1162 -3 3 -37 c3 -37 16 -51 23 -25 2 6 2 272 -1 590 l-5 577 -2355 3 c-1295
1 -2375 -1 -2400 -4z m4737 -239 c1 -197 0 -219 -11 -175 -7 28 -16 56 -20 63
-13 22 -24 13 -19 -15 2 -16 7 -45 10 -65 4 -29 10 -38 24 -38 18 0 19 -12 19
-266 0 -236 -2 -265 -15 -254 -9 7 -27 10 -44 7 -19 -4 -31 -2 -34 6 -3 9 -10
9 -30 0 -32 -15 -57 -7 -57 17 0 20 -26 46 -33 33 -2 -4 -7 -20 -10 -34 -6
-24 -11 -26 -51 -25 -32 1 -50 7 -61 21 -15 20 -15 20 -30 1 -8 -10 -16 -24
-18 -30 -3 -8 -8 -8 -18 1 -14 11 -23 13 -118 16 -33 1 -56 7 -58 15 -7 18
-26 15 -47 -9 l-18 -21 -24 23 -24 22 -22 -19 c-13 -11 -35 -28 -50 -37 l-27
-17 -9 32 c-10 41 -35 47 -50 13 -13 -27 -32 -34 -32 -11 0 20 -19 31 -32 18
-14 -14 -78 -3 -110 20 -29 20 -48 17 -48 -8 0 -30 -83 -38 -117 -12 -7 6 -18
6 -29 0 -19 -11 -49 -5 -80 15 -19 12 -25 11 -52 -12 -35 -29 -50 -31 -66 -10
-6 9 -27 18 -46 21 -66 8 -74 11 -78 22 -5 17 -19 15 -43 -9 -22 -22 -57 -18
-72 7 -12 21 -26 17 -33 -11 -7 -28 -14 -31 -32 -13 -8 8 -14 5 -23 -15 -15
-34 -27 -34 -39 -2 -10 25 -21 31 -34 18 -4 -4 -24 -8 -45 -9 -35 -2 -39 1
-47 29 -12 39 -31 46 -43 14 -8 -19 -15 -23 -39 -19 -16 2 -33 -1 -37 -8 -5
-8 -16 -1 -35 22 l-28 33 -11 -29 c-9 -23 -14 -26 -25 -16 -12 9 -19 7 -33 -7
-13 -13 -33 -18 -70 -18 -46 0 -53 3 -58 22 -5 22 -35 33 -35 13 0 -16 -37
-12 -44 5 -3 8 -12 15 -21 15 -8 0 -15 -7 -15 -15 0 -9 -9 -15 -25 -15 -14 0
-30 -9 -37 -20 -17 -26 -25 -25 -32 5 -8 32 -29 32 -51 -1 -11 -18 -22 -23
-33 -19 -9 4 -22 9 -29 12 -6 2 -14 -5 -18 -17 -6 -19 -9 -20 -23 -7 -10 8
-22 13 -28 10 -6 -2 -16 8 -22 22 -14 29 -27 32 -42 8 -8 -13 -13 -14 -16 -5
-3 6 -14 12 -24 12 -10 0 -21 7 -24 15 -4 13 -10 14 -26 5 -11 -6 -25 -8 -31
-5 -5 4 -16 1 -24 -5 -23 -19 -75 -24 -75 -7 0 8 -7 20 -15 27 -12 10 -16 9
-21 -5 -5 -13 -14 -15 -37 -11 -16 3 -35 2 -42 -4 -9 -7 -16 -6 -25 5 -18 22
-47 19 -53 -6 -5 -18 -8 -19 -29 -7 -12 7 -28 20 -35 28 -11 13 -15 12 -31 -8
l-18 -23 -24 26 c-27 29 -42 31 -60 9 -8 -8 -25 -14 -39 -12 -14 1 -32 -1 -39
-6 -9 -5 -16 2 -23 24 -14 38 -31 34 -43 -8 -11 -38 -18 -39 -46 -10 -17 19
-24 20 -39 11 -15 -10 -22 -9 -31 2 -21 25 -40 17 -57 -22 -14 -34 -17 -36
-24 -18 -4 11 -8 30 -8 43 -1 25 -26 30 -39 6 -6 -11 -12 -1 -22 40 -15 65
-24 81 -39 72 -17 -11 -44 -67 -50 -105 -9 -49 -28 -50 -36 -1 -8 46 -31 63
-50 37 -16 -22 -31 -22 -44 0 -5 11 -23 18 -46 20 -30 2 -38 -2 -47 -23 -14
-30 -22 -30 -36 1 -15 32 -29 32 -44 0 -10 -22 -12 -23 -23 -8 -7 9 -17 13
-23 9 -11 -6 -16 4 -27 62 -11 56 -32 38 -45 -40 -12 -70 -13 -71 -29 -49 -15
19 -19 21 -29 8 -7 -8 -23 -17 -37 -19 -20 -4 -26 1 -40 39 -11 28 -22 42 -30
39 -7 -2 -17 0 -23 6 -8 8 -15 8 -26 -1 -12 -10 -15 -2 -21 49 -4 34 -12 60
-18 60 -7 0 -22 3 -34 6 -19 5 -22 1 -29 -43 -6 -40 -9 -44 -14 -23 -8 35 -34
32 -38 -5 -2 -16 -8 -34 -12 -39 -23 -23 -30 59 -30 345 l0 299 25 12 26 12
-26 23 c-19 18 -25 34 -25 63 l0 40 2338 -2 2337 -3 2 -225z m-4521 -658 c19
0 37 4 40 10 3 5 12 1 19 -9 10 -14 16 -15 28 -5 12 11 16 7 21 -23 7 -34 29
-47 40 -22 3 8 8 7 16 -5 6 -10 18 -18 25 -18 8 0 15 8 15 18 0 14 4 13 19 -7
24 -31 37 -21 46 35 6 43 8 45 24 30 10 -9 23 -16 29 -16 6 0 16 -8 22 -17 9
-17 12 -16 30 6 19 22 22 23 39 7 21 -19 48 -12 57 16 6 19 6 19 22 -3 14 -21
16 -21 28 -4 17 22 26 15 39 -33 13 -47 32 -51 44 -10 8 30 9 30 10 7 1 -23
30 -76 31 -55 0 5 7 3 15 -4 22 -19 32 -5 39 57 12 102 28 124 41 56 8 -46 30
-83 50 -83 8 0 15 -6 15 -12 0 -7 5 -20 10 -28 8 -13 15 -10 39 18 17 18 32
39 34 45 3 8 11 6 25 -7 17 -14 25 -16 35 -7 11 8 21 8 43 -4 37 -19 50 -19
58 1 5 12 9 14 20 5 17 -14 95 -5 117 14 14 13 18 13 35 -6 13 -14 27 -19 46
-17 17 3 29 -1 33 -9 3 -9 12 -12 23 -9 13 5 22 -1 30 -19 6 -14 16 -25 21
-25 11 0 21 25 21 51 0 20 15 26 25 9 4 -6 15 -6 32 1 14 5 35 6 47 2 55 -18
123 -20 139 -4 16 16 67 13 73 -4 4 -8 13 -15 22 -15 8 0 24 -7 34 -16 12 -12
21 -14 30 -7 9 7 22 5 43 -8 52 -32 57 -33 74 -11 11 15 23 20 37 16 12 -3 26
1 34 11 13 15 15 15 30 -5 l16 -22 34 28 c22 19 35 24 38 16 5 -17 31 -15 38
3 10 24 24 18 35 -15 13 -35 34 -39 42 -8 5 18 9 19 21 9 9 -7 21 -9 28 -5 22
14 42 14 65 -2 21 -13 24 -12 39 11 16 25 17 25 36 8 19 -17 20 -17 33 0 12
17 14 16 20 -12 8 -39 26 -39 48 -1 20 34 29 37 47 15 7 -9 20 -13 27 -10 8 3
22 -4 32 -16 15 -19 18 -19 30 -5 10 12 16 13 32 3 16 -10 21 -9 29 3 7 11 11
9 19 -13 12 -31 16 -32 55 -12 15 8 32 13 36 10 4 -2 15 4 24 14 19 21 51 18
61 -6 5 -14 8 -14 25 2 11 10 32 17 47 17 15 0 33 5 40 10 8 6 19 5 33 -2 12
-6 24 -9 28 -6 3 3 14 -2 24 -11 29 -26 60 -24 85 5 l22 26 23 -20 c19 -17 30
-19 58 -13 19 4 39 4 45 0 17 -14 127 -5 139 11 12 15 46 13 46 -4 0 -6 11 -8
26 -5 16 3 28 0 31 -9 6 -16 33 -19 33 -4 0 6 5 10 10 10 6 0 10 -7 10 -15 0
-24 29 -29 51 -9 19 17 20 17 35 -4 17 -24 39 -28 51 -9 4 6 22 22 40 34 l32
23 15 -21 c13 -19 18 -20 46 -10 18 6 36 8 41 5 5 -3 27 0 49 7 35 11 42 10
60 -6 12 -11 28 -15 42 -12 12 4 28 1 35 -5 10 -8 20 -8 38 2 21 11 29 11 52
-1 20 -11 27 -11 30 -1 6 17 23 15 46 -5 18 -17 19 -17 29 1 8 14 17 16 43 12
20 -4 36 -2 40 4 5 8 11 7 22 -1 11 -10 19 -10 33 -1 29 18 70 -6 70 -40 l0
-28 -2340 0 -2340 0 0 115 c0 106 10 145 23 94 4 -14 11 -20 21 -16 8 3 17 -1
20 -9 9 -23 25 -16 32 14 10 42 19 50 22 21 3 -23 8 -27 38 -27z"/>
<path d="M5293 2754 c-4 -10 0 -22 9 -28 8 -6 18 -21 22 -33 4 -12 12 -20 19
-18 7 2 27 6 45 9 l32 6 0 -45 c0 -49 14 -95 29 -95 6 0 13 17 17 38 l7 37 9
-27 c6 -16 14 -28 18 -28 18 0 21 23 9 66 -10 34 -17 43 -30 39 -9 -3 -24 1
-32 10 -9 8 -23 15 -31 15 -9 0 -16 4 -16 8 0 5 -6 17 -14 28 -15 19 -15 19
-30 -1 -14 -19 -15 -19 -21 8 -8 30 -32 36 -42 11z"/>
<path d="M7500 2600 c0 -11 5 -20 10 -20 6 0 10 -9 10 -20 0 -10 6 -24 13 -31
7 -7 11 -29 8 -55 -3 -46 16 -63 26 -24 8 31 33 24 33 -9 0 -17 5 -33 11 -36
6 -4 9 -23 7 -43 -4 -52 17 -51 31 2 15 60 14 83 -4 90 -8 3 -15 17 -15 30 0
15 -8 30 -19 36 -13 6 -21 23 -23 47 -4 48 -28 57 -29 11 -1 -27 -3 -29 -6 -8
-9 47 -53 72 -53 30z"/>
<path d="M1133 2553 c4 -65 10 -217 13 -338 6 -191 9 -222 24 -237 14 -13 18
-35 19 -105 3 -221 41 -556 65 -580 3 -3 12 0 21 7 13 11 15 5 15 -44 0 -42 4
-56 14 -56 10 0 16 -17 21 -57 12 -112 17 -133 30 -133 7 0 16 13 20 30 4 16
9 30 11 30 3 0 16 -11 29 -25 16 -18 25 -43 30 -85 5 -42 11 -60 21 -60 8 0
14 5 14 10 0 6 5 10 10 10 6 0 10 -7 10 -15 0 -26 29 -16 36 12 7 25 8 25 15
8 4 -11 8 -41 8 -67 1 -56 32 -98 56 -78 8 7 20 8 26 4 7 -4 18 1 25 11 12 16
15 15 40 -14 15 -18 33 -30 40 -27 10 4 16 -7 20 -35 8 -47 37 -52 42 -6 4 37
22 30 45 -16 22 -43 34 -46 47 -12 10 27 29 31 61 15 16 -9 21 -6 31 15 14 31
22 22 44 -53 8 -28 20 -52 26 -52 6 0 20 -8 31 -17 18 -17 20 -17 34 2 13 19
15 19 27 3 7 -10 23 -18 35 -18 12 0 30 -5 41 -12 16 -10 23 -9 40 7 22 19 22
19 36 0 8 -10 14 -22 14 -27 0 -13 27 -9 40 7 9 11 17 12 31 4 11 -5 24 -7 29
-4 6 4 13 -1 16 -9 9 -22 46 -20 77 4 19 15 31 18 44 12 69 -36 73 -37 104
-18 26 16 35 16 55 5 19 -10 28 -10 48 0 19 10 35 11 77 2 45 -10 55 -9 64 3
15 20 49 14 54 -10 4 -27 32 -55 50 -53 9 1 24 -1 34 -6 11 -5 24 -2 36 9 22
20 28 20 48 1 9 -10 19 -12 27 -7 15 13 46 12 79 0 20 -8 31 -7 42 2 12 10 18
10 30 0 9 -7 27 -10 44 -7 17 4 36 0 49 -9 19 -13 23 -13 43 7 14 14 24 18 31
11 6 -6 25 -8 43 -5 21 3 45 -2 72 -16 40 -20 41 -20 79 -1 35 18 39 19 56 3
14 -13 20 -13 33 -3 12 10 18 10 30 0 9 -8 28 -10 55 -5 32 5 40 4 40 -9 0
-21 18 -30 35 -16 10 8 19 9 28 3 17 -13 98 -14 113 -2 9 7 26 7 54 -1 31 -8
45 -8 55 0 10 8 19 8 34 1 11 -6 26 -9 33 -6 29 10 204 13 256 4 36 -5 60 -5
66 1 16 16 26 11 26 -13 0 -21 4 -22 38 -18 32 5 34 6 10 9 -53 7 -28 22 29
17 33 -2 63 1 70 7 9 7 17 7 26 1 6 -6 46 -10 87 -9 41 1 81 -3 89 -8 19 -15
104 -16 113 -2 5 8 11 7 20 -2 17 -17 45 -15 52 3 4 12 14 14 41 9 31 -6 81
-6 259 -3 27 1 60 -5 74 -13 20 -10 26 -10 29 0 5 14 33 17 33 3 0 -5 16 -11
37 -13 26 -3 40 1 52 14 19 22 54 23 76 2 9 -10 26 -14 41 -11 13 2 27 0 30
-5 3 -5 20 -6 37 -2 18 4 115 7 217 6 102 -1 192 2 199 7 9 6 22 6 33 0 12 -6
756 -11 2028 -14 l2010 -4 -5 42 c-3 23 -7 52 -9 65 -1 12 -8 28 -14 34 -7 7
-12 18 -12 24 0 7 -4 15 -9 18 -5 4 -7 -3 -4 -14 5 -20 2 -22 -52 -24 -11 -1
-20 -8 -20 -16 0 -19 74 -17 88 2 6 10 7 9 4 -2 -2 -8 2 -29 10 -47 7 -18 13
-35 13 -37 0 -3 -208 -6 -462 -6 -255 0 -470 0 -478 0 -8 0 -325 2 -705 5
-379 2 -717 4 -750 3 -33 0 -71 -1 -85 0 -14 0 -52 1 -85 1 -583 -3 -1193 -2
-1305 2 -190 5 -570 4 -594 -3 -18 -5 -34 -3 -42 3 -7 6 -22 8 -33 4 -12 -3
-31 1 -45 11 -24 15 -29 15 -75 -2 -37 -13 -56 -15 -73 -8 -13 6 -105 9 -213
8 -120 -1 -196 3 -207 9 -13 8 -21 7 -35 -4 -14 -11 -37 -14 -98 -11 -44 3
-106 5 -138 6 -32 1 -62 7 -65 13 -9 13 -73 14 -89 1 -7 -6 -19 -5 -32 1 -13
7 -22 8 -26 1 -6 -10 -45 -14 -45 -5 0 15 32 80 42 86 6 4 33 5 59 3 40 -4 47
-2 45 13 -1 14 8 19 42 21 41 3 57 -10 27 -22 -30 -11 -15 -27 23 -22 20 3 47
5 60 5 19 1 22 5 17 21 -6 20 0 20 2652 22 1462 2 2675 2 2695 0 l37 -3 4 -97
3 -97 2 103 2 102 -38 0 -38 0 -63 185 c-35 102 -65 184 -68 182 -2 -2 24 -83
57 -180 33 -97 60 -178 60 -181 0 -3 -1253 -6 -2785 -6 -2751 0 -2786 0 -2775
19 5 11 10 23 10 28 -1 4 -7 -3 -14 -17 -12 -21 -24 -26 -83 -32 -37 -4 -75
-8 -85 -8 -18 -1 -18 -24 0 -42 9 -9 16 -7 31 6 11 10 25 15 30 11 15 -9 14
-82 -1 -91 -18 -11 -461 -13 -475 -2 -7 6 -22 4 -42 -6 -20 -11 -32 -12 -36
-5 -4 5 -19 9 -33 8 -64 -5 -77 0 -90 33 l-12 33 -25 -28 c-27 -28 -49 -34
-60 -17 -3 5 -19 10 -36 10 -16 0 -29 5 -29 10 0 17 -29 11 -61 -12 -27 -20
-32 -21 -62 -9 -18 8 -51 16 -74 18 -30 4 -44 10 -48 24 -9 28 -32 23 -51 -12
l-16 -31 -24 23 c-22 21 -25 21 -42 6 -12 -11 -22 -13 -32 -6 -8 5 -31 7 -51
3 -21 -3 -40 -1 -43 5 -4 6 -20 8 -37 4 -17 -3 -41 0 -54 7 -20 11 -28 10 -51
-4 -25 -17 -26 -17 -42 5 -14 21 -16 21 -28 4 -12 -17 -14 -16 -24 9 -5 15
-10 33 -10 39 0 7 -4 18 -9 26 -8 12 -12 12 -25 2 -8 -7 -20 -10 -25 -7 -5 4
-16 -2 -23 -12 -17 -23 -53 -25 -96 -5 -32 15 -36 15 -47 -1 -9 -12 -20 -15
-39 -10 -15 3 -40 1 -56 -6 -25 -10 -36 -10 -64 4 -20 9 -38 21 -41 26 -3 6
-25 -5 -47 -23 -23 -18 -43 -27 -45 -21 -2 6 -10 20 -17 30 -12 15 -16 16 -29
5 -12 -10 -21 -10 -38 -1 -17 10 -23 9 -30 -1 -6 -11 -13 -9 -32 9 -27 26 -40
27 -57 7 -7 -8 -17 -12 -24 -8 -6 4 -20 6 -31 4 -12 -2 -28 8 -42 25 -20 25
-25 27 -42 17 -11 -7 -27 -10 -35 -7 -24 9 -38 94 -17 102 13 4 -14 105 -29
110 -10 4 -12 -5 -7 -40 3 -24 9 -53 13 -63 6 -18 5 -18 -15 3 -26 27 -48 28
-55 4 -5 -14 -14 -17 -42 -14 -21 3 -39 0 -43 -7 -11 -17 -44 23 -56 67 -13
45 -30 51 -43 15 -6 -15 -11 -22 -11 -15 -1 16 -28 16 -34 0 -6 -19 -32 5 -47
42 -15 37 -37 39 -46 5 -3 -14 -10 -22 -16 -19 -5 3 -15 0 -23 -6 -16 -13 -19
-3 -30 87 l-6 52 31 -10 c16 -6 33 -15 36 -20 8 -14 34 -11 50 6 14 13 13 15
-9 15 -14 0 -30 7 -37 15 -7 8 -25 15 -41 15 -18 0 -29 5 -29 14 0 20 -60 68
-76 62 -7 -3 -16 -1 -18 3 -3 5 -16 6 -29 4 -19 -4 -30 3 -46 26 -12 17 -29
31 -37 31 -8 0 -14 9 -14 20 0 17 3 19 20 10 10 -6 24 -18 29 -28 8 -14 12
-15 23 -4 11 11 5 21 -35 57 -26 25 -47 51 -47 60 0 9 -7 27 -16 40 -11 17
-18 65 -25 167 -5 78 -13 146 -18 151 -15 15 -34 -40 -33 -98 1 -47 0 -48 -7
-15 -5 19 -12 59 -15 88 -6 49 -5 52 15 52 14 0 19 5 16 14 -3 8 -9 32 -13 53
-4 21 -11 44 -16 50 -6 7 -12 43 -13 80 -12 259 -18 343 -25 343 -13 0 -22
133 -22 318 l1 182 -26 0 -26 0 6 -117z"/>
<path d="M149 2281 c-26 -27 -29 -36 -29 -98 0 -78 14 -113 54 -131 63 -31
116 27 116 128 0 61 -22 107 -56 120 -39 15 -53 12 -85 -19z m97 -36 c35 -85
-1 -192 -59 -170 -25 10 -40 61 -35 119 5 63 20 86 55 86 18 0 28 -9 39 -35z"/>
<path d="M487 2289 c-67 -52 -54 -212 18 -239 62 -23 115 35 115 124 0 110
-67 168 -133 115z m77 -25 c26 -26 25 -147 -2 -177 -21 -24 -54 -18 -69 13
-18 36 -16 131 3 158 18 26 46 28 68 6z"/>
<path d="M715 2228 c-72 -109 -72 -118 5 -118 l60 0 0 -30 c0 -20 5 -30 15
-30 10 0 15 10 15 29 0 21 6 30 21 34 23 6 17 27 -7 27 -11 0 -14 18 -14 85 0
78 -2 85 -20 85 -14 0 -37 -25 -75 -82z"/>
<path d="M4052 2244 c-42 -18 -60 -150 -29 -210 27 -52 88 -61 127 -19 20 21
25 39 28 93 3 58 0 72 -20 102 -19 28 -31 35 -58 37 -19 1 -41 -1 -48 -3z m86
-69 c23 -70 0 -155 -43 -155 -35 0 -55 35 -55 100 0 69 20 103 58 98 21 -2 30
-11 40 -43z"/>
<path d="M4366 2227 c-45 -45 -45 -169 0 -214 62 -62 144 -1 144 107 0 108
-82 169 -144 107z m94 -26 c5 -11 10 -47 10 -81 0 -77 -12 -100 -51 -100 -36
0 -49 27 -49 100 0 73 13 100 49 100 20 0 34 -7 41 -19z"/>
<path d="M4578 2243 c-10 -2 -18 -11 -18 -19 0 -10 10 -12 45 -7 52 7 75 -7
75 -44 0 -17 -20 -45 -60 -87 -83 -86 -81 -96 20 -96 64 0 80 3 80 15 0 12
-13 15 -55 15 -30 0 -55 3 -55 7 0 4 22 30 50 58 63 64 73 103 37 139 -26 25
-69 32 -119 19z"/>
<path d="M9871 1705 c-1 -5 8 -34 19 -62 l20 -53 -35 17 c-26 13 -42 14 -63 7
-68 -23 -86 -179 -27 -237 23 -23 87 -22 108 1 22 24 40 125 32 176 -6 41 -53
170 -54 151z m3 -137 c18 -25 21 -112 7 -151 -14 -36 -48 -44 -74 -18 -17 16
-21 33 -21 83 0 35 6 73 13 86 15 29 55 29 75 0z"/>
<path d="M4885 1611 c-39 -8 -41 -37 -2 -33 l27 3 0 -95 c0 -96 0 -96 -25 -96
-16 0 -25 -6 -25 -15 0 -12 14 -15 68 -15 72 0 88 6 72 25 -6 8 0 35 21 84 17
40 29 75 27 77 -2 2 -19 -32 -37 -76 -47 -116 -61 -109 -61 35 0 126 3 121
-65 106z"/>
<path d="M5065 1606 c-3 -9 -7 -23 -10 -32 -3 -8 0 -12 5 -9 6 4 10 -10 10
-33 l0 -40 44 5 c39 5 46 2 61 -21 37 -56 -13 -109 -82 -88 -29 9 -33 8 -33
-9 0 -28 97 -27 134 2 26 21 35 65 20 104 -8 20 -56 45 -89 45 -21 0 -25 5
-25 30 0 29 1 30 49 30 28 0 53 5 56 10 4 6 -15 10 -49 10 -30 0 -61 3 -70 6
-10 4 -18 0 -21 -10z"/>
<path d="M5314 1597 c-23 -20 -28 -34 -32 -85 -8 -105 18 -152 83 -152 65 0
91 47 83 152 -4 51 -9 65 -32 85 -15 12 -38 23 -51 23 -13 0 -36 -11 -51 -23z
m86 -22 c19 -22 24 -107 11 -148 -25 -76 -90 -49 -98 40 -7 66 17 123 50 123
14 0 30 -7 37 -15z"/>
<path d="M7213 1610 c-13 -5 -23 -16 -23 -24 0 -11 6 -12 34 -4 68 21 115 -16
83 -66 -8 -12 -38 -47 -66 -78 -28 -31 -51 -61 -51 -67 0 -7 28 -11 80 -11 64
0 80 3 80 15 0 12 -13 15 -57 15 l-57 0 46 48 c52 54 68 80 68 116 0 50 -75
81 -137 56z"/>
<path d="M9581 1540 c-28 -45 -51 -90 -51 -100 0 -17 7 -20 54 -20 52 0 55 -1
58 -27 2 -17 9 -28 18 -28 9 0 16 11 18 28 2 15 9 27 18 27 8 0 14 7 14 15 0
8 -7 15 -15 15 -12 0 -15 16 -15 85 0 83 -1 85 -24 85 -19 0 -34 -16 -75 -80z"/>
<path d="M10013 1605 c-13 -9 -27 -34 -33 -56 -13 -46 -11 -159 2 -159 5 0 6
-4 3 -10 -3 -5 0 -7 8 -4 8 3 18 1 22 -5 3 -6 24 -11 45 -11 47 0 75 30 85 90
20 121 -55 209 -132 155z m81 -37 c24 -35 22 -142 -4 -168 -11 -11 -24 -20
-30 -20 -5 0 -19 9 -30 20 -26 26 -28 133 -4 168 19 28 49 28 68 0z"/>
<path d="M7640 1551 l0 -59 40 5 c49 7 80 -16 80 -58 0 -43 -40 -66 -91 -52
-35 9 -40 8 -37 -6 4 -20 92 -28 125 -10 29 15 47 68 34 100 -13 35 -34 50
-81 56 -37 5 -41 8 -38 32 3 24 7 26 56 29 77 4 63 22 -18 22 l-70 0 0 -59z"/>
<path d="M162 983 c-37 -15 -58 -155 -30 -206 27 -52 80 -62 125 -23 26 23 28
29 28 104 0 71 -3 83 -24 106 -24 25 -65 33 -99 19z m91 -77 c11 -45 1 -120
-18 -136 -21 -18 -58 -8 -73 20 -8 15 -11 48 -9 84 3 47 8 63 27 78 20 16 25
17 44 5 11 -8 25 -31 29 -51z"/>
<path d="M477 967 c-46 -45 -43 -171 4 -218 27 -27 74 -24 104 5 42 42 46 153
7 205 -27 37 -83 41 -115 8z m77 -10 c33 -24 42 -127 14 -179 -12 -25 -54 -22
-72 4 -29 41 -18 157 18 180 15 10 20 10 40 -5z"/>
<path d="M687 983 c-18 -17 -4 -25 32 -19 50 8 93 -21 75 -51 -6 -10 -26 -20
-44 -23 -41 -6 -53 -30 -15 -30 42 0 65 -17 65 -49 0 -41 -21 -54 -80 -49 -36
4 -50 2 -50 -7 0 -28 83 -34 129 -10 46 23 55 71 20 106 -19 19 -19 22 -5 38
23 25 20 67 -6 85 -22 16 -108 22 -121 9z"/>
</g>
</svg>
