<?xml version="1.0" standalone="no"?>
<!DOCTYPE svg PUBLIC "-//W3C//DTD SVG 20010904//EN"
 "http://www.w3.org/TR/2001/REC-SVG-20010904/DTD/svg10.dtd">
<svg version="1.0" xmlns="http://www.w3.org/2000/svg"
 width="679.000000pt" height="160.000000pt" viewBox="0 0 679.000000 160.000000"
 preserveAspectRatio="xMidYMid meet">
<metadata>
Created by potrace 1.16, written by Peter Selinger 2001-2019
</metadata>
<g transform="translate(0.000000,160.000000) scale(0.100000,-0.100000)"
fill="#000000" stroke="none">
<path d="M697 1457 c-12 -13 -27 -32 -33 -43 -11 -18 -14 -17 -46 21 l-35 39
-67 -12 c-100 -19 -141 -38 -162 -77 -10 -18 -28 -38 -41 -44 -13 -6 -30 -26
-38 -44 -7 -18 -23 -41 -34 -51 -13 -11 -21 -31 -21 -50 0 -19 -10 -40 -26
-57 -20 -21 -28 -42 -32 -81 -3 -29 -12 -63 -20 -76 -8 -12 -16 -45 -17 -73
-2 -27 -8 -56 -14 -63 -18 -22 -26 -107 -11 -116 14 -9 17 -64 5 -93 -13 -31
-1 -143 17 -161 10 -9 27 -44 39 -76 22 -62 85 -144 118 -155 10 -3 23 -17 29
-30 9 -18 19 -25 41 -25 16 0 31 -6 35 -15 3 -8 14 -15 25 -15 11 0 25 -8 30
-19 12 -22 80 -51 121 -51 16 0 41 10 57 24 l28 24 28 -24 c16 -13 42 -24 58
-24 40 0 108 29 120 51 5 11 19 19 30 19 11 0 22 7 25 15 4 9 19 15 35 15 22
0 32 7 41 25 6 14 15 25 20 25 16 0 84 69 101 102 54 108 77 179 77 236 0 32
-3 62 -7 65 -12 12 -7 79 7 87 15 9 7 97 -10 114 -6 6 -10 35 -10 66 0 31 -6
64 -14 75 -7 11 -15 44 -18 73 -4 39 -12 60 -32 81 -16 17 -26 38 -26 57 0 19
-8 39 -21 50 -11 10 -27 33 -34 51 -8 18 -24 38 -37 44 -13 6 -35 28 -50 49
-27 39 -88 69 -171 84 -31 6 -41 3 -60 -17z m-111 -24 c17 -17 17 -18 -9 -21
-15 -2 -27 -8 -27 -14 0 -6 12 -8 29 -5 18 4 33 1 39 -6 14 -19 21 -70 11 -88
-6 -12 -4 -19 6 -23 19 -7 29 10 32 62 3 56 7 62 51 63 30 2 32 3 10 6 -31 5
-35 15 -14 32 18 15 73 6 137 -21 32 -13 52 -30 67 -56 19 -34 19 -39 5 -67
-9 -16 -22 -38 -31 -47 -9 -11 -11 -18 -4 -18 6 0 23 20 38 45 30 51 46 56 62
20 15 -34 17 -29 -20 -64 -18 -17 -28 -31 -22 -31 6 0 19 9 29 20 17 19 45 27
45 13 0 -4 -10 -17 -22 -30 -12 -13 -17 -23 -11 -23 5 0 18 9 28 20 22 24 34
18 28 -13 -3 -17 4 -35 26 -59 32 -37 40 -68 19 -68 -8 -1 -7 -5 4 -14 11 -8
15 -20 11 -35 -4 -14 0 -26 12 -35 11 -8 19 -31 22 -63 5 -46 3 -52 -23 -73
-20 -16 -22 -21 -9 -15 43 16 50 12 53 -33 l3 -44 -54 7 c-36 5 -57 3 -61 -4
-5 -7 6 -11 33 -11 32 0 44 -5 57 -25 21 -33 10 -62 -32 -82 -19 -9 -34 -20
-34 -25 0 -11 7 -10 41 7 39 21 49 13 49 -41 0 -55 -14 -86 -36 -77 -14 5 -14
3 -3 -15 11 -18 11 -24 -4 -40 -9 -10 -17 -27 -17 -38 0 -25 -30 -73 -65 -104
-16 -14 -43 -40 -61 -57 -31 -32 -53 -42 -55 -25 0 4 -2 17 -3 29 -2 13 -6 26
-11 30 -4 5 -5 -2 -2 -14 3 -13 1 -23 -5 -23 -5 0 -7 -4 -4 -9 11 -17 -6 -41
-29 -41 -15 0 -26 -8 -30 -20 -13 -42 -109 -66 -149 -37 -11 8 -22 33 -26 60
-6 44 -4 50 32 98 21 28 38 56 38 62 0 7 -11 -5 -25 -25 -33 -49 -77 -51 -118
-4 -36 39 -19 4 22 -48 17 -21 28 -43 24 -50 -4 -6 -6 -23 -4 -38 3 -37 -30
-68 -74 -68 -45 0 -92 23 -100 50 -4 12 -15 20 -30 20 -23 0 -40 24 -29 41 3
5 1 9 -4 9 -6 0 -8 10 -5 23 3 12 2 19 -2 14 -5 -4 -9 -17 -11 -30 -1 -12 -3
-25 -3 -29 -2 -18 -31 -6 -49 20 -11 15 -32 34 -46 42 -32 16 -86 95 -86 123
0 11 -8 29 -17 39 -15 16 -15 22 -4 40 11 18 11 20 -3 15 -22 -9 -36 22 -36
77 0 54 10 62 51 41 44 -23 49 -10 6 15 -44 26 -54 53 -33 85 13 20 25 25 57
25 26 0 38 4 33 11 -4 7 -27 8 -66 4 l-61 -7 7 38 c9 49 19 59 44 45 33 -18
37 -13 7 11 -25 19 -27 26 -22 71 3 32 11 55 22 63 12 9 16 21 12 35 -4 15 0
27 11 35 11 9 12 13 5 14 -22 0 -14 31 18 68 22 24 29 42 26 59 -6 31 6 37 28
13 10 -11 23 -20 28 -20 6 0 1 10 -11 23 -12 13 -22 26 -22 30 0 14 28 6 45
-13 10 -11 23 -20 29 -20 6 0 -4 14 -21 31 -38 35 -36 30 -21 64 16 36 32 31
62 -20 15 -25 32 -45 38 -45 6 0 4 7 -5 18 -8 9 -22 30 -31 46 -14 28 -14 33
6 67 22 40 40 50 128 73 71 19 66 19 86 -1z"/>
<path d="M534 852 c0 -108 -5 -156 -23 -225 -12 -49 -20 -95 -17 -102 8 -21
63 1 83 34 10 14 28 35 41 47 23 19 25 26 23 110 -3 159 -11 203 -43 240 -17
19 -37 34 -47 34 -14 0 -16 -17 -17 -138z"/>
<path d="M707 951 c-29 -33 -35 -47 -40 -102 -3 -35 -5 -101 -4 -147 3 -75 5
-85 29 -105 14 -12 28 -30 31 -40 4 -9 22 -25 42 -34 53 -25 61 -10 36 73 -25
85 -41 237 -34 327 7 81 -6 87 -60 28z"/>
<path d="M3665 1282 c-84 -41 -139 -121 -177 -260 -28 -102 -31 -362 -6 -462
46 -183 128 -270 253 -270 63 0 121 25 173 73 28 27 32 37 32 84 0 70 -17 77
-69 30 -54 -49 -76 -59 -128 -59 -52 0 -85 20 -121 72 -43 65 -57 133 -57 295
0 190 22 275 90 342 36 37 48 43 84 43 50 0 85 -17 125 -59 50 -52 76 -39 76
38 0 102 -169 184 -275 133z"/>
<path d="M1396 1268 c-14 -20 -16 -82 -16 -481 0 -297 4 -465 10 -478 11 -20
45 -25 70 -9 13 8 16 64 20 367 l5 357 87 -324 c49 -179 93 -342 98 -362 13
-44 51 -61 77 -35 8 8 62 176 118 373 l104 359 0 -345 c1 -190 4 -355 7 -368
8 -27 44 -38 73 -22 21 11 21 14 21 478 0 523 1 512 -66 512 -19 0 -41 -8 -51
-18 -11 -10 -61 -166 -122 -380 -58 -200 -108 -357 -111 -350 -10 18 -190 664
-190 681 0 8 -9 26 -21 41 -27 35 -90 37 -113 4z"/>
<path d="M2230 1271 c-15 -30 -14 -953 2 -969 15 -15 51 -15 66 0 9 9 12 73
12 225 l0 213 30 0 c51 0 90 -27 112 -76 10 -25 37 -113 58 -195 21 -83 44
-157 50 -165 16 -19 54 -18 71 2 10 12 10 27 1 74 -24 116 -83 316 -106 362
l-24 46 29 28 c92 88 92 323 0 415 -45 46 -91 59 -203 59 -76 0 -89 -2 -98
-19z m212 -121 c37 -17 58 -67 58 -135 0 -105 -46 -155 -144 -155 l-46 0 0
156 0 157 53 -6 c28 -3 64 -11 79 -17z"/>
<path d="M2759 1273 c-11 -13 -15 -105 -17 -484 -2 -417 -1 -469 13 -483 21
-20 49 -20 69 0 14 13 16 47 16 220 l0 204 108 0 c121 0 132 5 132 60 0 55
-11 60 -132 60 l-108 0 0 160 0 159 123 3 122 3 3 43 c5 70 0 72 -168 72 -125
0 -150 -3 -161 -17z"/>
<path d="M4046 1274 c-14 -14 -16 -72 -16 -488 0 -497 0 -496 45 -496 42 0 45
13 45 238 l0 215 46 -6 c83 -9 101 -43 169 -317 29 -115 37 -130 69 -130 30 0
46 18 46 53 0 46 -78 327 -108 388 l-27 56 32 32 c42 43 65 115 65 204 -1 127
-42 209 -127 248 -54 25 -216 27 -239 3z m219 -130 c32 -21 48 -66 48 -133 -1
-104 -46 -151 -143 -151 l-50 0 0 148 c0 82 3 152 8 156 11 12 110 -2 137 -20z"/>
<path d="M4569 1273 c-11 -13 -14 -101 -14 -478 0 -377 3 -465 14 -478 11 -14
34 -17 133 -17 129 0 153 7 200 57 70 73 96 221 60 339 -13 41 -33 82 -51 102
l-30 32 27 52 c24 46 27 63 27 148 0 87 -3 102 -30 155 -44 85 -85 105 -220
105 -83 0 -105 -3 -116 -17z m221 -123 c47 -25 66 -141 36 -214 -20 -49 -51
-66 -118 -66 l-58 0 0 151 0 152 60 -6 c34 -4 70 -11 80 -17z m33 -425 c51
-33 74 -155 43 -229 -24 -58 -58 -76 -142 -76 l-74 0 0 166 0 167 74 -6 c43
-3 85 -12 99 -22z"/>
<path d="M5090 1270 c-7 -14 -10 -166 -8 -479 2 -370 6 -461 17 -474 11 -15
36 -17 166 -17 167 0 165 -1 165 60 0 59 -2 60 -131 60 l-119 0 0 423 c0 316
-3 426 -12 435 -19 19 -66 15 -78 -8z"/>
<path d="M5641 1040 c-76 -18 -140 -100 -165 -209 -19 -82 -21 -253 -5 -335
13 -64 61 -150 100 -178 80 -60 206 -32 268 58 77 112 93 392 30 533 -45 102
-134 153 -228 131z m117 -154 c41 -47 56 -123 50 -256 -7 -153 -46 -220 -129
-220 -82 0 -123 80 -123 245 -1 120 16 194 54 235 23 25 36 30 73 30 39 0 49
-5 75 -34z"/>
<path d="M6097 1036 c-20 -8 -44 -20 -53 -27 -49 -41 -79 -179 -54 -254 16
-47 68 -106 125 -139 59 -35 85 -70 85 -117 0 -89 -85 -120 -160 -60 -47 38
-58 39 -71 4 -12 -32 -3 -81 20 -107 48 -55 154 -66 219 -23 55 36 76 85 80
187 4 111 -15 145 -117 216 -79 54 -100 81 -101 130 0 73 73 102 137 55 43
-32 63 -23 63 29 0 51 -13 76 -48 94 -44 22 -85 26 -125 12z"/>
<path d="M6475 1035 c-49 -18 -81 -55 -100 -119 -38 -125 -1 -219 115 -296 75
-50 90 -70 90 -122 0 -91 -75 -118 -158 -58 -23 17 -46 30 -51 30 -25 0 -29
-94 -5 -128 38 -55 151 -73 216 -35 99 58 127 241 52 340 -15 20 -55 53 -90
75 -78 49 -102 91 -85 150 19 62 69 72 134 26 34 -25 53 -18 62 21 18 82 -86
150 -180 116z"/>
<path d="M3151 731 c-15 -27 -14 -63 2 -84 11 -15 28 -17 127 -15 l115 3 9 28
c6 17 6 37 0 55 l-9 27 -117 3 c-108 2 -118 1 -127 -17z"/>
</g>
</svg>
