<?xml version="1.0" standalone="no"?>
<!DOCTYPE svg PUBLIC "-//W3C//DTD SVG 20010904//EN"
 "http://www.w3.org/TR/2001/REC-SVG-20010904/DTD/svg10.dtd">
<svg version="1.0" xmlns="http://www.w3.org/2000/svg"
 width="281.000000pt" height="286.000000pt" viewBox="0 0 281.000000 286.000000"
 preserveAspectRatio="xMidYMid meet">
<metadata>
Created by potrace 1.16, written by Peter Selinger 2001-2019
</metadata>
<g transform="translate(0.000000,286.000000) scale(0.100000,-0.100000)"
fill="#000000" stroke="none">
<path d="M215 2676 c-83 -37 -126 -138 -94 -223 15 -40 67 -91 106 -104 l33
-11 0 -714 0 -715 26 -24 27 -25 521 -2 521 -3 3 -73 3 -72 -158 -168 c-86
-92 -188 -199 -225 -238 -72 -76 -83 -107 -50 -137 43 -39 60 -27 243 168 96
102 177 185 182 185 4 0 7 -51 7 -113 0 -124 5 -137 55 -137 50 0 55 13 55
137 0 62 3 113 8 113 4 0 85 -83 181 -185 143 -152 178 -185 201 -185 15 0 34
8 43 18 31 34 20 61 -51 136 -37 39 -139 146 -225 238 l-158 168 3 72 3 73
521 3 521 2 27 25 26 24 0 715 0 714 33 11 c39 13 91 64 106 104 33 87 -15
194 -102 226 -19 8 -394 11 -1195 11 -953 -1 -1173 -3 -1197 -14z m2373 -118
c15 -15 16 -53 2 -79 -10 -19 -34 -19 -1175 -19 -1141 0 -1165 0 -1175 19 -14
26 -13 64 2 79 17 17 2329 17 2346 0z m-138 -898 l0 -680 -1035 0 -1035 0 0
680 0 680 1035 0 1035 0 0 -680z"/>
<path d="M1295 2266 c-232 -54 -409 -213 -478 -431 -33 -104 -30 -260 6 -370
66 -199 237 -358 442 -410 76 -19 224 -19 300 0 286 73 493 354 471 638 -22
266 -198 483 -456 561 -76 24 -211 29 -285 12z m216 -116 c268 -51 454 -327
398 -592 -38 -181 -185 -337 -359 -384 -134 -35 -298 -13 -400 56 -70 46 -145
126 -179 189 -145 273 -16 608 274 709 94 33 172 40 266 22z"/>
<path d="M1240 1657 l0 -325 238 145 c130 81 250 154 265 163 l28 17 -243 148
c-134 82 -253 155 -265 163 l-23 14 0 -325z"/>
</g>
</svg>
