<?xml version="1.0" standalone="no"?>
<!DOCTYPE svg PUBLIC "-//W3C//DTD SVG 20010904//EN"
 "http://www.w3.org/TR/2001/REC-SVG-20010904/DTD/svg10.dtd">
<svg version="1.0" xmlns="http://www.w3.org/2000/svg"
 width="3600.000000pt" height="2400.000000pt" viewBox="0 0 3600.000000 2400.000000"
 preserveAspectRatio="xMidYMid meet">
<metadata>
Created by potrace 1.16, written by Peter Selinger 2001-2019
</metadata>
<g transform="translate(0.000000,2400.000000) scale(0.100000,-0.100000)"
fill="#000000" stroke="none">
<path d="M18473 21200 c-17 -10 -36 -28 -42 -38 -26 -48 -61 -225 -86 -427
-62 -518 -62 -516 -93 -545 -75 -68 -97 -144 -157 -530 -44 -289 -49 -313 -72
-325 -66 -37 -98 -100 -156 -304 -41 -147 -45 -155 -73 -164 -50 -16 -99 -74
-144 -169 -24 -49 -48 -91 -54 -93 -6 -1 -30 -8 -54 -14 -30 -8 -59 -28 -95
-66 -50 -50 -56 -53 -93 -48 -25 3 -60 -2 -98 -15 -52 -18 -62 -18 -92 -6 -48
20 -95 17 -170 -11 -36 -14 -84 -25 -104 -25 -49 0 -96 -38 -110 -88 -36 -130
-64 -549 -110 -1627 -56 -1320 -90 -1915 -109 -1937 -3 -4 -96 -14 -206 -23
-434 -34 -545 -46 -685 -75 -166 -33 -347 -90 -573 -181 l-158 -63 -52 14
c-29 7 -74 13 -100 13 -44 -1 -50 2 -79 39 -52 64 -112 98 -174 98 -29 0 -64
-4 -78 -10 -40 -15 -101 -75 -168 -166 -34 -46 -79 -95 -100 -109 -44 -29 -78
-74 -153 -200 -29 -49 -62 -95 -73 -102 -12 -7 -117 -65 -234 -129 -890 -487
-1610 -1023 -2274 -1695 -188 -190 -204 -210 -242 -289 -22 -47 -66 -173 -96
-280 -31 -107 -69 -235 -86 -284 -40 -118 -59 -226 -125 -690 -56 -394 -82
-534 -114 -629 -23 -67 -65 -150 -84 -165 -19 -16 -21 -3 -52 364 -48 573 -56
650 -77 774 -11 69 -27 137 -35 152 -33 66 -117 80 -186 31 -119 -83 -702
-937 -763 -1117 -43 -124 -70 -552 -119 -1861 -14 -363 -25 -687 -26 -720 -1
-57 -2 -58 -9 -20 -4 22 -10 109 -14 193 -6 135 -11 166 -43 270 -19 64 -37
120 -39 123 -3 5 -220 -57 -232 -66 -1 -1 13 -51 32 -111 l34 -109 21 -435
c12 -239 28 -586 36 -770 37 -836 66 -1174 106 -1240 24 -38 81 -64 124 -56
54 10 84 53 110 157 39 158 63 605 130 2419 57 1540 87 2073 122 2157 45 111
513 816 530 800 5 -6 14 -94 48 -507 48 -572 79 -797 117 -845 23 -30 96 -65
135 -65 57 0 93 36 133 137 21 52 60 123 90 165 144 196 179 322 265 933 62
450 79 536 135 715 27 85 65 214 86 285 57 199 69 218 226 381 522 537 1172
1048 1863 1461 182 109 475 273 600 336 67 33 128 102 195 215 36 63 71 108
108 139 30 25 79 79 109 120 31 40 58 73 62 73 3 0 19 -16 34 -35 15 -19 51
-47 79 -61 44 -22 60 -25 104 -20 34 4 77 0 120 -10 39 -9 83 -13 104 -9 19 3
125 42 235 85 278 109 460 161 670 189 39 6 194 19 345 31 303 23 458 43 490
62 11 7 36 36 55 63 34 50 34 50 54 270 23 248 47 705 91 1745 34 802 65 1356
81 1473 l12 79 43 18 c40 17 47 18 78 5 48 -20 96 -19 157 4 37 15 57 17 76
10 70 -26 141 -1 207 72 37 41 50 49 79 49 23 0 52 11 83 33 43 28 56 46 101
137 46 92 56 106 82 111 88 18 124 86 201 377 19 69 27 85 49 97 15 7 43 31
62 52 43 48 58 113 119 503 31 200 45 267 57 275 93 58 112 125 168 610 35
295 29 275 70 275 40 0 36 12 70 -200 14 -91 53 -316 85 -500 33 -184 84 -492
114 -685 109 -696 236 -1442 262 -1540 73 -276 95 -467 159 -1395 43 -615 75
-893 110 -946 9 -14 31 -33 48 -42 17 -10 58 -42 91 -72 142 -129 214 -137
377 -40 38 23 94 48 124 55 30 8 82 26 115 40 54 23 72 25 202 25 113 0 158
-4 213 -20 38 -11 91 -20 117 -20 25 0 84 -9 130 -19 51 -12 142 -21 236 -25
l152 -6 68 -38 67 -38 17 -134 c18 -146 39 -405 93 -1165 46 -642 62 -772 105
-853 37 -71 80 -98 138 -88 117 18 137 127 212 1125 63 834 84 1034 120 1121
43 104 56 160 144 650 20 107 41 213 47 235 11 39 85 125 107 125 13 0 14 -9
62 -390 62 -501 89 -641 129 -684 11 -11 24 -33 29 -47 17 -43 50 -331 87
-749 58 -647 84 -832 126 -891 25 -36 70 -52 127 -47 41 4 78 25 277 159 358
240 661 416 1030 598 1309 647 2945 1101 5236 1451 517 79 559 73 960 -143
235 -126 380 -191 559 -251 260 -87 469 -119 633 -97 88 12 138 25 527 141
195 59 675 184 883 230 61 14 97 27 97 35 0 17 -47 215 -52 220 -2 3 -100 -18
-217 -45 -347 -82 -547 -136 -931 -253 -263 -79 -266 -80 -395 -84 -114 -4
-144 -2 -249 22 -243 55 -438 135 -821 339 -364 194 -493 210 -1034 127 -2919
-451 -4814 -1064 -6280 -2033 -90 -59 -165 -107 -167 -105 -5 5 -36 303 -69
677 -58 642 -90 841 -145 896 -27 27 -44 125 -100 569 -22 182 -50 380 -62
440 -24 125 -62 205 -112 236 -73 44 -136 15 -298 -137 -161 -150 -166 -163
-238 -579 -61 -353 -88 -474 -125 -546 -23 -44 -60 -320 -85 -629 -21 -270
-36 -409 -39 -355 -5 120 -54 699 -70 825 -28 222 -64 294 -159 320 -24 6 -65
24 -90 40 -67 40 -105 47 -295 55 -93 4 -192 13 -220 21 -29 8 -74 14 -102 14
-27 0 -79 10 -115 22 -58 20 -86 22 -255 22 l-190 0 -90 -35 c-49 -20 -112
-41 -139 -48 -27 -7 -79 -30 -116 -52 -36 -21 -70 -39 -74 -39 -5 0 -27 17
-50 38 -22 21 -52 45 -65 54 -18 13 -27 33 -37 88 -14 73 -41 384 -69 780 -57
834 -99 1215 -144 1334 -30 76 -122 606 -281 1616 -32 206 -81 501 -109 655
-27 154 -66 379 -86 500 -40 247 -75 393 -105 436 -36 50 -78 73 -136 73 -39
1 -58 6 -76 22 -53 49 -102 56 -155 24z"/>
<path d="M12640 19155 l0 -1705 1440 0 1440 0 0 1705 0 1705 -1440 0 -1440 0
0 -1705z m2720 0 l0 -1545 -1280 0 -1280 0 0 1545 0 1545 1280 0 1280 0 0
-1545z"/>
<path d="M13963 19881 c-72 -14 -134 -29 -137 -32 -9 -8 -34 -139 -27 -139 3
1 70 13 149 29 92 18 142 24 142 17 1 -6 -38 -215 -87 -463 l-87 -452 -135 -3
-135 -3 -13 -60 c-7 -33 -12 -63 -13 -68 0 -4 158 -6 352 -5 l352 3 7 35 c4
19 9 50 13 68 l6 32 -136 0 c-124 0 -135 1 -130 18 5 18 206 1038 206 1047 0
15 -208 0 -327 -24z"/>
<path d="M8020 4575 l0 -65 590 0 590 0 0 -260 0 -260 65 0 65 0 0 260 0 260
3505 0 3505 0 0 -260 0 -260 65 0 65 0 0 260 0 260 3500 0 3500 0 0 -260 0
-260 65 0 65 0 0 260 0 260 3500 0 3500 0 0 -260 0 -260 65 0 65 0 0 260 0
260 1755 0 1755 0 0 65 0 65 -13110 0 -13110 0 0 -65z"/>
<path d="M9182 3379 c-153 -26 -259 -142 -313 -344 -31 -112 -33 -410 -5 -530
58 -248 192 -375 396 -375 204 0 338 127 396 375 28 120 26 418 -5 530 -28
106 -62 173 -118 235 -55 62 -119 96 -204 110 -72 11 -73 11 -147 -1z m163
-138 c115 -52 165 -197 165 -480 0 -287 -52 -438 -167 -487 -41 -18 -125 -18
-166 0 -115 49 -167 200 -167 487 0 340 80 499 250 499 25 0 63 -9 85 -19z"/>
<path d="M16312 3379 c-153 -26 -259 -142 -313 -344 -31 -112 -33 -410 -5
-530 58 -248 192 -375 396 -375 204 0 338 127 396 375 28 120 26 418 -5 530
-28 106 -62 173 -118 235 -55 62 -119 96 -204 110 -72 11 -73 11 -147 -1z
m163 -138 c115 -52 165 -197 165 -480 0 -287 -52 -438 -167 -487 -41 -18 -125
-18 -166 0 -115 49 -167 200 -167 487 0 340 80 499 250 499 25 0 63 -9 85 -19z"/>
<path d="M17377 3380 c-206 -35 -325 -226 -343 -550 -15 -260 41 -479 151
-593 108 -112 305 -139 454 -63 87 46 164 160 203 305 30 107 32 417 4 536
-26 111 -66 195 -122 256 -59 62 -121 95 -205 109 -71 11 -74 11 -142 0z m158
-139 c117 -53 167 -200 167 -486 1 -239 -33 -367 -117 -444 -48 -44 -89 -56
-166 -49 -107 11 -180 112 -208 289 -16 96 -14 344 4 436 16 86 61 186 99 222
53 50 151 64 221 32z"/>
<path d="M23442 3379 c-153 -26 -259 -142 -313 -344 -31 -112 -33 -410 -5
-530 58 -248 192 -375 396 -375 204 0 338 127 396 375 28 120 26 418 -5 530
-28 106 -62 173 -118 235 -55 62 -119 96 -204 110 -72 11 -73 11 -147 -1z
m163 -138 c115 -52 165 -197 165 -480 0 -287 -52 -438 -167 -487 -41 -18 -125
-18 -166 0 -115 49 -167 200 -167 487 0 340 80 499 250 499 25 0 63 -9 85 -19z"/>
<path d="M24507 3380 c-206 -35 -325 -226 -343 -550 -15 -260 41 -479 151
-593 108 -112 305 -139 454 -63 87 46 164 160 203 305 30 107 32 417 4 536
-26 111 -66 195 -122 256 -59 62 -121 95 -205 109 -71 11 -74 11 -142 0z m158
-139 c117 -53 167 -200 167 -486 1 -239 -33 -367 -117 -444 -48 -44 -89 -56
-166 -49 -107 11 -180 112 -208 289 -16 96 -14 344 4 436 16 86 61 186 99 222
53 50 151 64 221 32z"/>
<path d="M29590 3380 c-159 -34 -295 -168 -357 -354 -26 -77 -27 -91 -28 -276
0 -173 3 -204 23 -273 62 -214 182 -329 362 -344 207 -17 374 89 425 271 26
90 18 253 -17 327 -64 139 -193 218 -354 219 -98 0 -210 -50 -264 -117 l-22
-28 7 60 c22 192 86 304 204 359 38 17 64 21 146 20 96 -1 123 -7 228 -49 15
-6 17 0 17 69 l0 75 -67 21 c-77 25 -233 34 -303 20z m172 -595 c28 -21 53
-50 73 -90 27 -53 30 -67 30 -155 0 -88 -3 -102 -30 -155 -20 -40 -45 -69 -73
-90 -41 -28 -50 -30 -132 -30 -82 0 -91 2 -132 30 -28 21 -53 50 -73 90 -27
53 -30 68 -30 154 0 83 4 104 26 152 45 95 106 130 221 126 67 -2 82 -6 120
-32z"/>
<path d="M30582 3379 c-153 -26 -259 -142 -313 -344 -31 -112 -33 -410 -5
-530 58 -248 192 -375 396 -375 204 0 338 127 396 375 28 120 26 418 -5 530
-28 106 -62 173 -118 235 -55 62 -119 96 -204 110 -72 11 -73 11 -147 -1z
m163 -138 c115 -52 165 -197 165 -480 0 -287 -52 -438 -167 -487 -41 -18 -125
-18 -166 0 -115 49 -167 200 -167 487 0 340 80 499 250 499 25 0 63 -9 85 -19z"/>
<path d="M31647 3380 c-206 -35 -325 -226 -343 -550 -15 -260 41 -479 151
-593 108 -112 305 -139 454 -63 87 46 164 160 203 305 30 107 32 417 4 536
-26 111 -66 195 -122 256 -59 62 -121 95 -205 109 -71 11 -74 11 -142 0z m158
-139 c117 -53 167 -200 167 -486 1 -239 -33 -367 -117 -444 -48 -44 -89 -56
-166 -49 -107 11 -180 112 -208 289 -16 96 -14 344 4 436 16 86 61 186 99 222
53 50 151 64 221 32z"/>
<path d="M15190 3373 c-50 -9 -144 -35 -196 -54 l-54 -20 0 -80 c0 -43 2 -79
4 -79 2 0 34 14 71 31 89 40 204 69 274 69 178 -2 282 -140 226 -300 -26 -74
-97 -158 -344 -412 l-241 -246 0 -66 0 -66 385 0 385 0 0 70 0 70 -282 2 -283
3 221 225 c121 124 235 247 253 273 81 119 105 219 77 325 -32 126 -129 215
-266 246 -64 15 -172 19 -230 9z"/>
<path d="M22275 2984 l-255 -385 0 -80 0 -79 275 0 275 0 0 -145 0 -145 80 0
80 0 0 145 0 145 90 0 90 0 0 70 0 70 -90 0 -90 0 0 395 0 395 -100 0 -101 0
-254 -386z m295 -84 l0 -320 -206 0 c-113 0 -204 4 -202 8 4 12 402 631 406
631 1 1 2 -143 2 -319z"/>
</g>
</svg>
